# xmcd
#
# Track frame offsets:
#	150
#	14716
#	32056
#	47176
#	62230
#	75769
#	89819
#	109859
#	124369
#	141301
#	157431
#	169648
#	182211
#	195524
#	206759
#
# Disc length: 2909 seconds
#
# Revision: 0
# Processed by: cddbd v1.5.2PL0 Copyright (c) Steve Scherf et al.
# Submitted via: EasyCDDAExtractor 10.0.6.1
#
DISCID=e10b5b0f
DTITLE=Various Artist - Gospel Jukebox vol.26
DYEAR=2007
DGENRE=Gospel
TTITLE0=Shelia lewis - Livin The Good Life
TTITLE1=The Morris's - Extreme Make-over
TTITLE2=Beverly Kirby  - Guilty Of Love
TTITLE3=David Ingles - There Is Power In His Blood
TTITLE4=Jerri Sue Baken - Be Still And Know That I Am God
TTITLE5=Grandpa's Neighbors - When We Rest In The Arms Of God
TTITLE6=Dan Duncan - Rev. Mr Black
TTITLE7=Colmus Family - Washed up
TTITLE8=Kayla Hobbs - Like The Prodigal Son
TTITLE9=Gary Lanier - Patiently Waiting
TTITLE10=Jerry Allen - My Ticket Has Been - Paid
TTITLE11=Cheryl Lynn - My Everything
TTITLE12=Neil Billy - Secret Place
TTITLE13=Marty Haggard - Walk That Row
TTITLE14=Jordan Carter - Red Top Mountain
EXTD=
EXTT0=
EXTT1=
EXTT2=
EXTT3=
EXTT4=
EXTT5=
EXTT6=
EXTT7=
EXTT8=
EXTT9=
EXTT10=
EXTT11=
EXTT12=
EXTT13=
EXTT14=
PLAYORDER=
